<?xml version="1.0" encoding="utf-8"?>
<!-- Generator: Adobe Illustrator 19.0.0, SVG Export Plug-In . SVG Version: 6.00 Build 0)  -->
<svg version="1.1" id="Layer_1" xmlns="http://www.w3.org/2000/svg" xmlns:xlink="http://www.w3.org/1999/xlink" x="0px" y="0px"
	 viewBox="0 0 500 500" style="enable-background:new 0 0 500 500;" xml:space="preserve">
<style type="text/css">
	.st0{fill:#FB7A24;}
	.st1{fill:#FFFFFF;}
</style>
<g id="XMLID_1_">
	<path id="XMLID_3_" class="st0" d="M249.9,66.1c47.4,0,94.8,0,142.1,0c5.9,0,11.8,0.5,17.5,2.3c12.4,3.8,18.9,12.6,21.5,24.9
		c1,4.8,1.3,9.8,1.3,14.7c0.1,33.2,0.1,66.4,0.1,99.5c0,60.4,0,120.9-0.1,181.3c0,8.5-0.5,17-4.6,24.7c-4.6,8.5-11,15.3-20.6,18.3
		c-1.7,0.5-3.6,1.1-5.3,1.1c-4.1,0-8.1,1-12.2,1c-92.8,0-185.5,0-278.3-0.1c-7.5,0-15.2-0.6-22.4-3.6c-1.4-0.6-2.9-1.1-4.1-2.1
		c-9.1-7-15.3-15.6-16.7-27.4c-0.5-4.2-0.6-8.4-0.6-12.7c0-94,0-188.1,0.1-282.1c0-5.5,0.1-11,1.7-16.2
		c4.5-13.9,14.2-21.5,28.7-23.1c3.4-0.4,6.8-0.6,10.2-0.6C155.4,66.1,202.7,66.1,249.9,66.1z"/>
	<path id="XMLID_7_" class="st1" d="M251.1,300.1c-1,6.4-1.8,12.1-4,17.4c-10.7,24.8-28.9,39.9-56.2,42.9c-32.3,3.6-62-16.4-71-47.3
		c-3.2-11.2-2.9-22.6-1.7-34c1.3-12.2,4.8-23.7,10.5-34.6c0.8-1.6,0.8-2.7-0.2-4.2c-8.6-12.9-11.9-27.2-10.7-42.7
		c0.6-8.2,2.7-16.1,6.4-23.5c11-21.7,35-40,67.3-37c28.3,2.7,54.6,27.1,58.7,54.6c0.2,1.4,0.6,2.7,1,4.8c0.7-3.7,1.2-6.7,1.8-9.7
		c5.3-25,29.7-51.1,64.4-51.4c35.1-0.3,61.1,27.2,66.1,52.8c2.1,10.8,1.7,21.6,0,32.4c-1.7,10.8-4.9,21.2-9.5,31
		c-1,2.2-0.9,3.7,0.4,5.8c7.6,11.7,10.9,24.6,10.5,38.6c-0.9,29.2-21.5,55.3-49.9,62.2c-39.6,9.5-70-14.1-80.2-42.8
		C252.9,310.5,252.1,305.6,251.1,300.1z M323.1,248.8c0.4-1.6,1.7-2.6,2.6-3.9c9.9-13.2,15.2-27.9,14-44.6
		c-0.8-12.1-10.8-20.7-22.9-20.2c-12.1,0.5-21.2,9.8-21.3,21.8c0,1,0,2,0,3c-0.8,12.9-7.9,19.9-18.7,20.7c-2,0.1-3.9,0.3-5.9,0.3
		c-14,0-27.9,0-41.9,0c-6.1,0-12.2,0.7-18,2.5c-27.1,8.4-42.9,26.9-48.2,54.6c-1,5.5-2,11.1-0.2,16.8c2.6,8.1,7.4,14.1,15.9,16.1
		c8.8,2.1,16.5-0.2,22.6-7.1c3.9-4.5,5.2-9.8,5.5-15.6c0.8-15,8.9-22.5,22.5-22.4c20.9,0.2,41.8,0,62.7,0.1c3.7,0,3.7,0.1,3.8,3.7
		c0,6.8-0.2,13.6,0.1,20.3c0.4,11,10.1,20.2,21.4,20.5c11.6,0.3,22-8.3,22.7-19.5c0.7-9.7,0.6-19.5,0-29.2
		c-0.5-7.5-4.6-12.9-11.5-16C326.6,250,324.8,249.5,323.1,248.8z M192.2,226c4.5,0,8.2,0,11.8,0c1.8,0,2.5-0.8,2.5-2.5
		c-0.1-7,0.3-14.1-0.1-21.1c-0.6-9.3-5.5-16-14.1-19.3c-8.8-3.5-16.9-1.5-23.8,5c-6.9,6.6-7.8,14.6-5.4,23.4
		c2.2,8.1,7.4,12.7,15.6,14C183.4,226.3,188.2,225.9,192.2,226z"/>
</g>
</svg>
